<?xml version="1.0" encoding="UTF-8"?>
<svg width="1295px" height="1615px" viewBox="0 0 1295 1615" version="1.1" xmlns="http://www.w3.org/2000/svg" xmlns:xlink="http://www.w3.org/1999/xlink">
    <title>Ecosystem/Core</title>
    <g id="Bleeps" stroke="none" stroke-width="1" fill="none" fill-rule="evenodd">
        <g id="Ecosystem/Core">
            <rect fill="#000000" x="0" y="0" width="1295" height="1615"></rect>
            <g id="Group" transform="translate(382.000000, 562.000000)" fill="#FFFFFF" fill-rule="nonzero">
                <g id="013-sound" transform="translate(10.500000, 38.500000)">
                    <path d="M2,17.42 L2,17.42 C0.8955,17.42 0,18.3155 0,19.42 L0,31.82 C0,32.9245 0.8955,33.82 2,33.82 C3.1045,33.82 4,32.9245 4,31.82 L4,19.42 C4,18.3155 3.1045,17.42 2,17.42 Z" id="Path"></path>
                    <path d="M9.92,7.32 C8.8155,7.32 7.92,8.2155 7.92,9.32 L7.92,41.92 C7.92,43.0245 8.8155,43.92 9.92,43.92 C11.0245,43.92 11.92,43.0245 11.92,41.92 L11.92,9.32 C11.92,8.2155 11.0245,7.32 9.92,7.32 Z" id="Path"></path>
                    <path d="M17.84,10.82 C16.7355,10.82 15.84,11.7155 15.84,12.82 L15.84,38.42 C15.84,39.5245 16.7355,40.42 17.84,40.42 C18.9445,40.42 19.84,39.5245 19.84,38.42 L19.84,12.82 C19.84,11.7155 18.9445,10.82 17.84,10.82 Z" id="Path"></path>
                    <path d="M25.76,17.42 L25.76,17.42 C24.6555,17.42 23.76,18.3155 23.76,19.42 L23.76,31.82 C23.76,32.9245 24.6555,33.82 25.76,33.82 C26.8645,33.82 27.76,32.9245 27.76,31.82 L27.76,19.42 C27.76,18.3155 26.8645,17.42 25.76,17.42 Z" id="Path"></path>
                    <path d="M33.7,3.55271368e-15 C32.5955,3.55271368e-15 31.7,0.8955 31.7,2 L31.7,49.24 C31.7,50.3445 32.5955,51.24 33.7,51.24 C34.8045,51.24 35.7,50.3445 35.7,49.24 L35.7,2 C35.7,0.8955 34.8045,3.55271368e-15 33.7,3.55271368e-15 Z" id="Path"></path>
                    <path d="M41.62,9.76 C40.5155,9.76 39.62,10.6555 39.62,11.76 L39.62,39.48 C39.62,40.5845 40.5155,41.48 41.62,41.48 C42.7245,41.48 43.62,40.5845 43.62,39.48 L43.62,11.76 C43.62,10.6555 42.7245,9.76 41.62,9.76 Z" id="Path"></path>
                    <path d="M49.5,13.1 C48.3955,13.1 47.5,13.9955 47.5,15.1 L47.5,36.14 C47.5,37.2445 48.3955,38.14 49.5,38.14 C50.6045,38.14 51.5,37.2445 51.5,36.14 L51.5,15.1 C51.5,13.9955 50.6045,13.1 49.5,13.1 Z" id="Path"></path>
                    <path d="M57.5,17.42 L57.5,17.42 C56.3955,17.42 55.5,18.3155 55.5,19.42 L55.5,31.82 C55.5,32.9245 56.3955,33.82 57.5,33.82 C58.6045,33.82 59.5,32.9245 59.5,31.82 L59.5,19.42 C59.5,18.3155 58.6045,17.42 57.5,17.42 Z" id="Path"></path>
                    <path d="M65.38,13.1 C64.2755,13.1 63.38,13.9955 63.38,15.1 L63.38,36.14 C63.38,37.2445 64.2755,38.14 65.38,38.14 C66.4845,38.14 67.38,37.2445 67.38,36.14 L67.38,15.1 C67.38,13.9955 66.4845,13.1 65.38,13.1 Z" id="Path"></path>
                    <path d="M73.3,9.76 C72.1955,9.76 71.3,10.6555 71.3,11.76 L71.3,39.48 C71.3,40.5845 72.1955,41.48 73.3,41.48 C74.4045,41.48 75.3,40.5845 75.3,39.48 L75.3,11.76 C75.3,10.6555 74.4045,9.76 73.3,9.76 Z" id="Path"></path>
                    <path d="M81.24,3.55271368e-15 C80.1355,3.55271368e-15 79.24,0.8955 79.24,2 L79.24,49.24 C79.24,50.3445 80.1355,51.24 81.24,51.24 C82.3445,51.24 83.24,50.3445 83.24,49.24 L83.24,2 C83.24,0.8955 82.3445,3.55271368e-15 81.24,3.55271368e-15 Z" id="Path"></path>
                    <path d="M89.16,10.82 C88.0555,10.82 87.16,11.7155 87.16,12.82 L87.16,38.42 C87.16,39.5245 88.0555,40.42 89.16,40.42 C90.2645,40.42 91.16,39.5245 91.16,38.42 L91.16,12.82 C91.16,11.7155 90.2645,10.82 89.16,10.82 Z" id="Path"></path>
                    <path d="M97.08,17.42 L97.08,17.42 C95.9755,17.42 95.08,18.3155 95.08,19.42 L95.08,31.82 C95.08,32.9245 95.9755,33.82 97.08,33.82 C98.1845,33.82 99.08,32.9245 99.08,31.82 L99.08,19.42 C99.08,18.3155 98.1845,17.42 97.08,17.42 Z" id="Path"></path>
                    <path d="M105,17.42 L105,17.42 C103.8955,17.42 103,18.3155 103,19.42 L103,31.82 C103,32.9245 103.8955,33.82 105,33.82 C106.1045,33.82 107,32.9245 107,31.82 L107,19.42 C107,18.3155 106.1045,17.42 105,17.42 Z" id="Path"></path>
                </g>
            </g>
            <g id="Group" transform="translate(382.000000, 890.000000)" fill="#FFFFFF" fill-rule="nonzero">
                <g id="010-chart" transform="translate(7.750000, 7.750000)">
                    <path d="M46.575,54.125 L2.975,54.125 C1.325,54.125 -7.10542736e-15,55.45 -7.10542736e-15,57.1 C-7.10542736e-15,58.75 1.325,60.075 2.975,60.075 L46.575,60.075 C48.225,60.075 49.55,58.75 49.55,57.1 C49.55,55.45 48.225,54.125 46.575,54.125 Z M46.575,37.625 L2.975,37.625 C1.325,37.625 -7.10542736e-15,38.95 -7.10542736e-15,40.6 C-7.10542736e-15,42.225 1.325,43.575 2.975,43.575 L46.575,43.575 C48.225,43.575 49.55,42.225 49.55,40.6 C49.55,38.95 48.225,37.625 46.575,37.625 Z M46.575,21.125 L2.975,21.125 C1.325,21.125 -7.10542736e-15,22.475 -7.10542736e-15,24.1 C-7.10542736e-15,25.75 1.325,27.075 2.975,27.075 L46.575,27.075 C48.225,27.075 49.55,25.75 49.55,24.1 C49.55,22.45 48.225,21.125 46.575,21.125 Z M104.55,36.375 C102.75,34.1 100.55,31.75 98.225,29.225 C96.05,26.875 93.775,24.475 91.65,21.9 C86.7,15.9 86,10.025 85.375,4.825 C85.275,4.05 85.2,3.3 85.1,2.575 L85.1,2.975 C84.8,1.3 83.4,0 81.625,0 C79.625,0 78.025,1.625 78.025,3.6 L78.025,84.1 C76.525,83.75 74.775,83.575 72.675,83.575 C68.2,83.575 62.7,85.8 58.325,89.35 C53.525,93.15 50.775,97.85 50.775,102.25 C50.775,105.225 52.025,107.875 54.3,109.675 C56.45,111.45 59.5,112.475 62.675,112.475 C67.75,112.475 73.375,110.425 77.7,107.025 C82.575,103.275 85.25,98.525 85.25,93.675 L85.175,93.525 C85.175,93.4 85.25,93.3 85.25,93.2 L85.25,33.125 C90.975,33.825 97.65,37.8 101.725,43.075 C105.3,47.525 109.05,55.1 109.275,61.075 C109.275,61.325 109.475,61.55 109.7,61.6 C109.95,61.65 110.2,61.525 110.3,61.3 L112.425,57 C112.475,56.925 112.475,56.85 112.475,56.75 C112.45,49.95 109.65,42.725 104.55,36.375 L104.55,36.375 Z" id="Shape"></path>
                </g>
            </g>
            <g id="Group" transform="translate(570.000000, 1363.000000)" fill="#FFFFFF" fill-rule="nonzero">
                <g id="012-royalties">
                    <circle id="Oval" cx="4.57142857" cy="18.2857143" r="4.57142857"></circle>
                    <ellipse id="Oval" cx="65.1428571" cy="64" rx="3.42857143" ry="2.28571429"></ellipse>
                    <path d="M68.5714671,43.4285714 C68.5752272,42.777733 68.2977566,42.1569653 67.8102857,41.7257143 C67.3311543,41.2835737 66.680968,41.0760496 66.0342857,41.1588571 L54.6057143,42.4297143 C53.4485294,42.5577813 52.5725131,43.5351792 52.5714286,44.6994286 L52.5714286,47.7325714 L68.5714671,45.9542857 L68.5714671,43.4285714 Z" id="Shape"></path>
                    <circle id="Oval" cx="59.4285714" cy="4.57142857" r="4.57142857"></circle>
                    <circle id="Oval" cx="114.285714" cy="18.2857143" r="4.57142857"></circle>
                    <ellipse id="Oval" cx="44.5714286" cy="64" rx="3.42857143" ry="2.28571429"></ellipse>
                    <path d="M100.571429,82.2857143 C90.4725074,82.2857143 82.2857143,90.4725074 82.2857143,100.571429 C82.2857143,110.67035 90.4725074,118.857143 100.571429,118.857143 C110.67035,118.857143 118.857143,110.67035 118.857143,100.571429 C118.845806,90.4772071 110.66565,82.2970512 100.571429,82.2857143 Z M102.857143,111.579429 L102.857143,112 C102.857143,113.262365 101.833794,114.285714 100.571429,114.285714 C99.3090635,114.285714 98.2857143,113.262365 98.2857143,112 L98.2857143,111.542857 C96.7532521,111.016715 95.4572757,109.963734 94.6285714,108.571429 C94.0430793,107.483444 94.4281362,106.127123 95.4979664,105.509082 C96.5677966,104.89104 97.9351141,105.235012 98.5851429,106.285714 C99.1393403,107.245601 100.302344,107.669548 101.344259,107.291488 C102.386175,106.913428 103.006699,105.842327 102.816395,104.750402 C102.626091,103.658476 101.679809,102.860443 100.571429,102.857143 C97.2355719,102.863464 94.3815294,100.462884 93.8162576,97.175264 C93.2509858,93.8876437 95.13932,90.6716624 98.2857143,89.5634286 L98.2857143,89.1428571 C98.2857143,87.8804921 99.3090635,86.8571429 100.571429,86.8571429 C101.833794,86.8571429 102.857143,87.8804921 102.857143,89.1428571 L102.857143,89.6 C104.389605,90.1261422 105.685581,91.179123 106.514286,92.5714286 C107.099778,93.6594133 106.714721,95.0157339 105.644891,95.6337755 C104.575061,96.2518171 103.207743,95.9078448 102.557714,94.8571429 C102.003517,93.8972562 100.840513,93.4733095 99.7985977,93.8513691 C98.7566823,94.229429 98.1361577,95.3005301 98.3264617,96.3924555 C98.5167657,97.4843813 99.4630485,98.2824144 100.571429,98.2857143 C103.907285,98.2793934 106.761328,100.679973 107.3266,103.967593 C107.891871,107.255213 106.003537,110.471195 102.857143,111.579429 Z" id="Shape"></path>
                    <path d="M13.7142857,86.8571429 L13.7142857,93.7142857 L69.3302857,93.7142857 C70.0395995,90.5001264 71.2440645,87.415709 72.9005714,84.5714286 L16,84.5714286 C14.7376349,84.5714286 13.7142857,85.5947778 13.7142857,86.8571429 Z" id="Shape"></path>
                    <path d="M11.4285714,98.2857143 C10.8334073,98.2802624 10.2616133,98.5170661 9.84457143,98.9417143 C9.39562539,99.3647243 9.1416435,99.9545911 9.14285281,100.571429 C9.14285281,101.833794 10.1662063,102.857143 11.4285714,102.857143 L68.688,102.857143 C68.6331429,102.098286 68.5714286,101.344 68.5714286,100.571429 C68.5714286,99.7988571 68.6331429,99.0445714 68.688,98.2857143 L11.4285714,98.2857143 Z" id="Shape"></path>
                    <path d="M100.571429,73.1428571 C85.4230469,73.1428571 73.1428571,85.4230469 73.1428571,100.571429 C73.1428571,115.71981 85.4230469,128 100.571429,128 C115.71981,128 128,115.71981 128,100.571429 C127.983623,85.4298354 115.713022,73.1592338 100.571429,73.1428571 Z M100.571429,123.428571 C87.9477771,123.428571 77.7142857,113.19508 77.7142857,100.571429 C77.7142857,87.9477771 87.9477771,77.7142857 100.571429,77.7142857 C113.19508,77.7142857 123.428571,87.9477771 123.428571,100.571429 C123.414715,113.189336 113.189336,123.414715 100.571429,123.428571 Z" id="Shape"></path>
                    <path d="M76.096,80 C82.161899,72.7570761 91.1239381,68.572336 100.571429,68.5714286 C101.52,68.5714286 102.452571,68.6331429 103.378286,68.7131429 L112.096,27.1337143 C110.866631,26.8259125 109.715159,26.2645794 108.715429,25.4857143 L88.8868571,48.5097143 C87.9781751,49.6295664 86.610115,50.2761787 85.168,50.2674286 C84.9686158,50.2663959 84.7694459,50.2541863 84.5714286,50.2308571 C82.9032263,50.0310016 81.459931,48.9758194 80.7634286,47.4468571 L63.7897143,12.5577143 C61.0868032,14.0999462 57.7703397,14.0999462 55.0674286,12.5577143 L38.0777143,47.4902857 C37.3746306,48.9996969 35.9395063,50.0368965 34.2857143,50.2308571 C34.0869467,50.2543541 33.8870069,50.2665641 33.6868571,50.2674286 C32.2155323,50.2669632 30.8252942,49.5933166 29.9131429,48.4388571 L10.1417143,25.4857143 C9.14198434,26.2645794 7.99051221,26.8259125 6.76114286,27.1337143 L17.856,80 L76.096,80 Z M44.5714286,57.1428571 C45.7480907,57.1454231 46.9128635,57.3783776 48,57.8285714 L48,44.6994286 C47.9996318,41.2048421 50.6273205,38.2689979 54.1005714,37.8834286 L65.5291429,36.6148571 C67.4673143,36.3996985 69.405419,37.0199355 70.8585602,38.3203899 C72.3117013,39.6208446 73.1424126,41.4784942 73.1428571,43.4285714 L73.1428571,64 C72.799144,68.0883577 69.2356843,71.1427515 65.1428571,70.8571429 C61.0500299,71.1427515 57.4865703,68.0883577 57.1428571,64 C57.4865703,59.9116423 61.0500299,56.8572485 65.1428571,57.1428571 C66.3195193,57.1454231 67.4842921,57.3783776 68.5714286,57.8285714 L68.5714286,50.5531429 L52.5714286,52.3428571 L52.5714286,64 C52.2277154,68.0883577 48.6642558,71.1427515 44.5714286,70.8571429 C40.4786014,71.1427515 36.9151417,68.0883577 36.5714286,64 C36.9151417,59.9116423 40.4786014,56.8572485 44.5714286,57.1428571 Z" id="Shape"></path>
                </g>
            </g>
            <g id="Icon/Generic/Ethereum" transform="translate(372.000000, 440.000000)" fill="#DAB894">
                <polygon id="Triangle" points="32.0593186 2.625 50.1721464 32.4956594 32.0593186 43.1906814 14 32.4956594"></polygon>
                <polygon id="Triangle" transform="translate(32.086073, 48.612209) scale(1, -1) translate(-32.086073, -48.612209) " points="32.0593186 35.9744179 50.1721464 61.25 32.0860732 50.6468062 14 61.25"></polygon>
            </g>
            <g id="Icon/Generic/Ethereum" transform="translate(372.000000, 1116.000000)" fill="#DAB894">
                <polygon id="Triangle" points="32.0593186 2.625 50.1721464 32.4956594 32.0593186 43.1906814 14 32.4956594"></polygon>
                <polygon id="Triangle" transform="translate(32.086073, 48.612209) scale(1, -1) translate(-32.086073, -48.612209) " points="32.0593186 35.9744179 50.1721464 61.25 32.0860732 50.6468062 14 61.25"></polygon>
            </g>
            <g id="Group" transform="translate(812.000000, 234.000000)" fill="#FFFFFF" fill-rule="nonzero">
                <g id="015-connection" transform="translate(6.000000, 0.000000)">
                    <path d="M108,82.20125 L108,45.79875 C112.559,44.86975 116,40.82925 116,36 C116,30.486 111.514,26 106,26 C103.041,26 100.379,27.293 98.5465,29.3425 L67.8935,11.45075 C67.96275,10.97675 68,10.49275 68,10 C68,4.486 63.514,0 58,0 C52.486,0 48,4.486 48,10 C48,10.49275 48.03725,10.97675 48.1065,11.45075 L17.4535,29.3425 C15.621,27.293 12.95925,26 10,26 C4.486,26 0,30.486 0,36 C0,40.82925 3.441,44.86975 8,45.79875 L8,82.20125 C3.441,83.13025 0,87.17075 0,92 C0,97.514 4.486,102 10,102 C12.95975,102 15.622,100.70625 17.45475,98.656 L48.10675,116.54725 C48.0375,117.02175 48,117.5065 48,117.99975 C48,123.51375 52.486,127.99975 58,127.99975 C63.514,127.99975 68,123.51375 68,117.99975 C68,117.50625 67.96275,117.02175 67.89325,116.54725 L98.54525,98.656 C100.378,100.70625 103.04025,102 106,102 C111.514,102 116,97.514 116,92 C116,87.17075 112.559,83.13025 108,82.20125 Z M102.77475,82.53675 L84.299,50.9725 L98.54625,42.6575 C99.95475,44.23275 101.85275,45.36125 103.99975,45.799 L103.99975,82.2015 C103.58125,82.2865 103.173,82.40075 102.77475,82.53675 Z M60,90 L60,73.79875 C62.147,73.36125 64.045,72.2325 65.4535,70.65725 L96.53,88.79425 C96.397,89.18625 96.285,89.588 96.20125,89.99975 L60,89.99975 L60,90 Z M19.79875,90 C19.71475,89.588 19.603,89.1865 19.47,88.7945 L50.5465,70.6575 C51.955,72.23275 53.853,73.36125 56,73.799 L56,90 L19.79875,90 Z M12,82.20125 L12,45.79875 C14.147,45.36125 16.045,44.2325 17.4535,42.65725 L31.70075,50.97225 L13.22525,82.53675 C12.827,82.40075 12.41875,82.2865 12,82.20125 Z M35.15375,52.98775 L48.53,60.7945 C48.18825,61.8015 48,62.879 48,64 C48,65.121 48.18825,66.1985 48.53,67.2055 L17.4535,85.3425 C17.20775,85.06775 16.9475,84.80625 16.67325,84.56 L35.15375,52.98775 Z M56,19.79875 L56,54.20125 C53.853,54.63875 51.955,55.7675 50.5465,57.34275 L37.17325,49.53775 L54.7765,19.464 C55.174,19.59975 55.58175,19.7135 56,19.79875 Z M61.2235,19.46375 L78.82675,49.5375 L65.4535,57.3425 C64.045,55.76725 62.147,54.63875 60,54.201 L60,19.79875 C60.41825,19.7135 60.826,19.59975 61.2235,19.46375 Z M98.5465,85.3425 L67.47,67.2055 C67.81175,66.1985 68,65.121 68,64 C68,62.879 67.81175,61.8015 67.47,60.7945 L80.84625,52.98775 L99.32675,84.56025 C99.0525,84.8065 98.79225,85.06775 98.5465,85.3425 Z M96.53,32.79425 C96.18825,33.80125 96,34.87875 96,36 C96,37.12125 96.18825,38.1985 96.53,39.2055 L82.2795,47.5225 L64.672,17.441 C65.3785,16.807 65.99375,16.074 66.49725,15.26425 L96.53,32.79425 Z M49.503,15.26425 C50.0065,16.074 50.62175,16.807 51.32825,17.441 L33.72025,47.5225 L19.46975,39.2055 C19.8115,38.1985 19.99975,37.121 19.99975,36 C19.99975,34.87875 19.8115,33.8015 19.46975,32.79425 L49.503,15.26425 Z M19.4705,95.204 C19.60325,94.8125 19.715,94.4115 19.79875,94 L56,94 L56,108.20125 C53.26425,108.75875 50.9325,110.43775 49.504,112.73425 L19.4705,95.204 Z M66.496,112.73425 C65.0675,110.43775 62.73575,108.75875 60,108.20125 L60,94 L96.20125,94 C96.285,94.4115 96.39675,94.8125 96.5295,95.204 L66.496,112.73425 Z" id="Shape"></path>
                </g>
            </g>
            <text id="Bleep" font-family="HelveticaNeue-Bold, Helvetica Neue" font-size="32" font-weight="bold" fill="#FFFFFF">
                <tspan x="402.464" y="721">Bleep</tspan>
            </text>
            <text id="Mint" font-family="HelveticaNeue-Bold, Helvetica Neue" font-size="32" font-weight="bold" fill="#DAB894">
                <tspan x="466" y="483">Mint</tspan>
            </text>
            <text id="Users" font-family="HelveticaNeue-Bold, Helvetica Neue" font-size="32" font-weight="bold" fill="#FFFFFF">
                <tspan x="401.552" y="393">Users</tspan>
            </text>
            <text id="Melody" font-family="HelveticaNeue-Bold, Helvetica Neue" font-size="32" font-weight="bold" fill="#FFFFFF">
                <tspan x="390.32" y="1049">Melody</tspan>
            </text>
            <text id="Bleeper" font-family="HelveticaNeue-Bold, Helvetica Neue" font-size="32" font-weight="bold" fill="#FFFFFF">
                <tspan x="817.056" y="721">Bleeper</tspan>
            </text>
            <text id="DAO" font-family="HelveticaNeue-Bold, Helvetica Neue" font-size="32" font-weight="bold" fill="#FFFFFF">
                <tspan x="840.736" y="393">DAO</tspan>
            </text>
            <text id="Royalties" font-family="HelveticaNeue-Bold, Helvetica Neue" font-size="32" font-weight="bold" fill="#FFFFFF">
                <tspan x="563.52" y="1522">Royalties</tspan>
            </text>
            <text id="Creator" font-family="HelveticaNeue-Bold, Helvetica Neue" font-size="32" font-weight="bold" fill="#FFFFFF">
                <tspan x="388.208" y="1522">Creator</tspan>
            </text>
            <g id="Group" transform="translate(382.000000, 234.000000)" fill="#FFFFFF" fill-rule="nonzero">
                <g id="014-networking" transform="translate(4.000000, 4.000000)">
                    <path d="M96,48 C109.234375,48 120,37.234375 120,24 C120,10.765625 109.234375,0 96,0 C86.3896485,0 78.1035155,5.69042975 74.274414,13.868164 L67.8476562,11.4960938 C67.923828,11.0039062 68,10.5117188 68,10 C68,4.486328 63.513672,0 58,0 C52.486328,0 48,4.486328 48,10 C48,15.513672 52.486328,20 58,20 C61.5820313,20 64.7060547,18.0898438 66.4716797,15.251953 L72.8876953,17.6201172 C72.3242188,19.65625 72,21.788086 72,24 C72,26.6201172 72.435547,29.1357422 73.2158203,31.498047 L51.2197265,40.8203125 C47.1923828,33.2060547 39.1982422,28 30,28 C27.0195312,28 24.1757812,28.5722655 21.540039,29.5683595 L16.0078125,17.9423828 C18.4179688,16.1142578 20,13.25 20,10 C20,4.486328 15.513672,0 10,0 C4.486328,0 0,4.486328 0,10 C0,15.513672 4.486328,20 10,20 C10.8320312,20 11.6298828,19.868164 12.404297,19.673828 L17.9296875,31.288086 C10.8076172,35.4560547 6,43.1679688 6,52 C6,60.2958985 10.232422,67.618164 16.6484375,71.9296875 L12.9902345,78.5058595 C12.038086,78.2060547 11.0478515,78 10,78 C4.486328,78 0,82.486328 0,88 C0,93.513672 4.486328,98 10,98 C15.513672,98 20,93.513672 20,88 C20,84.9716797 18.618164,82.2861328 16.486328,80.4521485 L20.1523438,73.8623047 C23.1601562,75.2236327 26.4882812,76 30,76 C35.4882812,76 40.5361328,74.1279298 44.5839845,71.015625 L52.4560547,79.6757812 C48.4638672,83.9638672 46,89.6923828 46,96 C46,97.2236327 46.1220703,98.4160155 46.2978515,99.5898438 L37.0361328,101.788086 C35.4423828,98.3798827 32.0039062,96 28,96 C22.486328,96 18,100.486328 18,106 C18,111.513672 22.486328,116 28,116 C33.513672,116 38,111.513672 38,106 C38,105.889649 37.9697265,105.786133 37.9677735,105.675781 L47.211914,103.484375 C50.3642578,113.061523 59.3798828,120 70,120 C83.234375,120 94,109.234375 94,96 C94,91.8964845 92.961914,88.0322265 91.1376953,84.6523438 L102.885742,77.013672 C104.702149,78.8535155 107.217774,80 110,80 C115.513672,80 120,75.513672 120,70 C120,64.486328 115.513672,60 110,60 C104.486328,60 100,64.486328 100,70 C100,71.2919923 100.265625,72.5195312 100.713867,73.654297 L88.9384765,81.3095702 C86.5820312,78.2802735 83.522461,75.8339845 80,74.209961 L89.7617188,47.1484375 C91.7539062,47.685547 93.8398438,48 96,48 Z M58,16 C54.6923828,16 52,13.3076172 52,10 C52,6.69238275 54.6923828,4 58,4 C61.3076172,4 64,6.69238275 64,10 C64,13.3076172 61.3076172,16 58,16 Z M4,10 C4,6.69238275 6.69238275,4 10,4 C13.3076173,4 16,6.69238275 16,10 C16,13.3076172 13.3076173,16 10,16 C6.69238275,16 4,13.3076172 4,10 Z M10,94 C6.69238275,94 4,91.3076172 4,88 C4,84.6923828 6.69238275,82 10,82 C13.3076173,82 16,84.6923828 16,88 C16,91.3076172 13.3076173,94 10,94 Z M28,112 C24.6923828,112 22,109.307617 22,106 C22,102.692383 24.6923828,100 28,100 C31.3076173,100 34,102.692383 34,106 C34,109.307617 31.3076173,112 28,112 Z M110,64 C113.307617,64 116,66.6923828 116,70 C116,73.3076172 113.307617,76 110,76 C106.692383,76 104,73.3076172 104,70 C104,66.6923828 106.692383,64 110,64 Z M84.2216798,40.1279297 C85.1142578,35.501953 89.1923828,32 94,32 L98,32 C102.807617,32 106.885742,35.501953 107.77832,40.1279297 C104.469727,42.5498047 100.40625,44 96,44 C91.59375,44 87.5302735,42.5498047 84.2216798,40.1279297 Z M96,28 C92.6923828,28 90,25.3076172 90,22 C90,18.6923828 92.6923828,16 96,16 C99.3076172,16 102,18.6923828 102,22 C102,25.3076172 99.3076172,28 96,28 Z M96,4 C107.02832,4 116,12.9716797 116,24 C116,29 114.141602,33.5683595 111.095703,37.078125 C109.694336,33.3876953 106.772461,30.4423828 103.131836,28.9882812 C104.902344,27.1835938 106,24.7197265 106,22 C106,16.486328 101.513672,12 96,12 C90.486328,12 86,16.486328 86,22 C86,24.7197265 87.0976562,27.1835938 88.868164,28.9882812 C85.227539,30.4423828 82.305664,33.3876953 80.904297,37.078125 C77.8583985,33.5683595 76,29 76,24 C76,12.9716797 84.9716798,4 96,4 L96,4 Z M10,52 C10,40.9716797 18.9716798,32 30,32 C41.0283203,32 50,40.9716797 50,52 C50,57.015625 48.1298828,61.595703 45.0683595,65.1103515 C43.671875,61.40625 40.7441405,58.446289 37.09375,56.9882813 C38.8623048,55.1835938 39.959961,52.7197265 39.959961,50 C39.959961,44.486328 35.4736328,40 29.959961,40 C24.446289,40 19.959961,44.486328 19.959961,50 C19.959961,52.7197265 21.0576173,55.1835938 22.828125,56.9882813 C19.1982423,58.435547 16.2802735,61.3701173 14.8740235,65.0458985 C11.845703,61.540039 10,56.986328 10,52 L10,52 Z M23.959961,50 C23.959961,46.6923828 26.6523438,44 29.959961,44 C33.267578,44 35.959961,46.6923828 35.959961,50 C35.959961,53.3076172 33.267578,56 29.959961,56 C26.6523438,56 23.959961,53.3076172 23.959961,50 Z M18.1884765,68.1015625 C19.0898438,63.4882812 23.1621095,60 27.959961,60 L31.959961,60 C36.7763673,60 40.8623048,63.513672 41.7421875,68.154297 C38.4404298,70.5615235 34.3896485,72 30,72 C25.578125,72 21.501953,70.540039 18.1884765,68.1015625 Z M58.1884765,112.101562 C59.0898438,107.488281 63.1621095,104 67.959961,104 L71.959961,104 C76.7763672,104 80.8623047,107.513672 81.7421875,112.154297 C78.4404297,114.561523 74.3896485,116 70,116 C65.578125,116 61.501953,114.540039 58.1884765,112.101562 Z M69.959961,100 C66.6523438,100 63.959961,97.3076172 63.959961,94 C63.959961,90.6923828 66.6523438,88 69.959961,88 C73.267578,88 75.959961,90.6923828 75.959961,94 C75.959961,97.3076172 73.267578,100 69.959961,100 Z M90,96 C90,101.015625 88.1298828,105.595703 85.0683595,109.110352 C83.671875,105.40625 80.7441405,102.446289 77.09375,100.988281 C78.8623048,99.1835938 79.959961,96.7197265 79.959961,94 C79.959961,88.486328 75.4736328,84 69.959961,84 C64.446289,84 59.959961,88.486328 59.959961,94 C59.959961,96.7197265 61.0576172,99.1835938 62.828125,100.988281 C59.1982422,102.435547 56.2802735,105.370117 54.8740235,109.045898 C51.845703,105.540039 50,100.986328 50,96 C50,84.9716797 58.9716797,76 70,76 C81.0283203,76 90,84.9716797 90,96 Z M76.2382812,72.8515625 C74.2460937,72.314453 72.1601562,72 70,72 C64.5117187,72 59.4638672,73.8720702 55.4160155,76.984375 L47.5439452,68.3242188 C51.5361327,64.0361328 54,58.3076172 54,52 C54,49.3798828 53.564453,46.8642578 52.7841797,44.501953 L74.7802735,35.1796875 C77.2441405,39.8378905 81.1982422,43.576172 86.001953,45.790039 L76.2382812,72.8515625 Z" id="Shape"></path>
                </g>
            </g>
            <path id="Line" d="M448,410 L448,526 L458,526 L446,550 L434,526 L444,526 L444,410 L448,410 Z" fill="#DAB894" fill-rule="nonzero"></path>
            <path id="Line" d="M776,609 L800,621 L776,633 L776,623 L520,623 L520,619 L776,619 L776,609 Z" fill="#DAB894" fill-rule="nonzero"></path>
            <path id="Line" d="M637.727273,296 L637.727,619 L776,619 L776,609 L800,621 L776,633 L776,623 L633.727273,623 L633.727,300 L520,300 L520,296 L637.727273,296 Z" fill="#DAB894" fill-rule="nonzero"></path>
            <text id="Become" font-family="HelveticaNeue-Bold, Helvetica Neue" font-size="32" font-weight="bold" fill="#DAB894">
                <tspan x="588.412" y="652">Become</tspan>
            </text>
            <text id="Used-in" font-family="HelveticaNeue-Bold, Helvetica Neue" font-size="32" font-weight="bold" fill="#DAB894">
                <tspan x="466" y="811">Used in</tspan>
            </text>
            <text id="Issue-new" font-family="HelveticaNeue-Bold, Helvetica Neue" font-size="32" font-weight="bold" fill="#DAB894">
                <tspan x="184" y="571">Issue </tspan>
                <tspan x="184" y="609">new</tspan>
            </text>
            <text id="Fund" font-family="HelveticaNeue-Bold, Helvetica Neue" font-size="32" font-weight="bold" fill="#DAB894">
                <tspan x="184" y="1410">Fund</tspan>
            </text>
            <text id="5%" font-family="HelveticaNeue-Bold, Helvetica Neue" font-size="32" font-weight="bold" fill="#DAB894">
                <tspan x="1075.208" y="662">5%</tspan>
            </text>
            <text id="5%" font-family="HelveticaNeue-Bold, Helvetica Neue" font-size="32" font-weight="bold" fill="#DAB894">
                <tspan x="1075.208" y="329">5%</tspan>
            </text>
            <path id="Line" d="M448,738 L448,854 L458,854 L446,878 L434,854 L444,854 L444,738 L448,738 Z" fill="#DAB894" fill-rule="nonzero"></path>
            <text id="Govern" font-family="HelveticaNeue-Bold, Helvetica Neue" font-size="32" font-weight="bold" fill="#DAB894">
                <tspan x="886" y="495">Govern</tspan>
            </text>
            <path id="Line" d="M878,410 L878,526 L888,526 L876,550 L864,526 L874,526 L874,410 L878,410 Z" transform="translate(876.000000, 481.000000) scale(1, -1) translate(-876.000000, -481.000000) " fill="#DAB894" fill-rule="nonzero"></path>
            <path id="Line" d="M325.597604,145.390364 L349.597604,157.390364 L325.597604,169.390364 L325.597,159.39 L176.011,159.39 L176.011,1425 L873.999,1425 L874,1360.39036 L878,1360.39036 L878,1429 L172.011448,1429 L172.011448,155.390364 L325.597,155.39 L325.597604,145.390364 Z" transform="translate(525.005724, 792.195182) scale(1, -1) translate(-525.005724, -792.195182) " fill="#DAB894" fill-rule="nonzero"></path>
            <path id="Line" d="M328.545356,145.390364 L352.545356,157.390364 L328.545356,169.390364 L328.545,159.39 L176.011,159.39 L176.011,624 L873.999,624 L874,559.390364 L878,559.390364 L878,628 L172.011448,628 L172.011448,155.390364 L328.545,155.39 L328.545356,145.390364 Z" transform="translate(525.005724, 391.695182) scale(1, -1) translate(-525.005724, -391.695182) " fill="#DAB894" fill-rule="nonzero"></path>
            <text id="Auctionned" font-family="HelveticaNeue-Bold, Helvetica Neue" font-size="32" font-weight="bold" fill="#DAB894">
                <tspan x="466" y="1159">Auctionned</tspan>
            </text>
            <text id="90%" font-family="HelveticaNeue-Bold, Helvetica Neue" font-size="32" font-weight="bold" fill="#DAB894">
                <tspan x="466" y="1299">90%</tspan>
            </text>
            <text id="10%" font-family="HelveticaNeue-Bold, Helvetica Neue" font-size="32" font-weight="bold" fill="#DAB894">
                <tspan x="654" y="1299">10%</tspan>
            </text>
            <path id="Line" d="M448,1066 L448,1327 L458,1327 L446,1351 L434,1327 L444,1327 L444,1066 L448,1066 Z" fill="#DAB894" fill-rule="nonzero"></path>
            <path id="Line" d="M448,1066 L448,1236.823 L636,1236.82384 L636,1327 L646,1327 L634,1351 L622,1327 L632,1327 L632,1240.823 L444,1240.82384 L444,1066 L448,1066 Z" fill="#DAB894" fill-rule="nonzero"></path>
            <path id="Line" d="M879,609 L903,621 L879,633 L879,623 L730,623 L730,1425 L1137,1425 L1137,1429 L726,1429 L726,619 L879,619 L879,609 Z" transform="translate(931.500000, 1024.000000) scale(-1, 1) translate(-931.500000, -1024.000000) " fill="#DAB894" fill-rule="nonzero"></path>
            <path id="Line" d="M881.248722,286 L905.248722,298 L881.248722,310 L881.248,300 L730,300 L730,1425 L1137,1425 L1137,1429 L726,1429 L726,296 L881.248,296 L881.248722,286 Z" transform="translate(931.500000, 862.500000) scale(-1, 1) translate(-931.500000, -862.500000) " fill="#DAB894" fill-rule="nonzero"></path>
            <g id="Group" transform="translate(382.000000, 1363.000000)" fill="#FFFFFF" fill-rule="nonzero">
                <g id="user" transform="translate(12.000000, 6.000000)">
                    <path d="M103.599609,68.263672 L96,53.515625 L96,46 C96,14.2216797 74.90625,0 54,0 C33.484375,0 22.3339845,8.51171875 16.482422,16 L2,16 C0.89550775,16 0,16.8955078 0,18 L0,34 C0,35.1044922 0.89550775,36 2,36 L8.263672,36 C8.09863275,37.3271485 8.01074225,38.663086 8,40 C8,41.3496095 8.04394525,42.6816405 8.10644525,44 L2,44 C0.89550775,44 0,44.8955078 0,46 L0,62 C0,63.1044922 0.89550775,64 2,64 L12.5117188,64 C14.4433595,67.9746095 16.8476562,71.7001953 19.671875,75.0976562 C23.2001953,79.6240235 26,83.2001953 26,89.540039 L26,112 C26,114.208984 27.7910155,116 30,116 L74,116 C76.2089845,116 78,114.208984 78,112 L78,96 L84,96 C89.5205078,95.993164 93.993164,91.5205078 94,86 L94.0898438,75.6201172 L100.793945,73.921875 C102.660156,73.5439452 104,71.9033202 104,70 C103.99707,69.3984375 103.860351,68.805664 103.599609,68.263672 Z M4,20 L35.171875,20 L40,24.828125 L40,27.171875 L35.171875,32 L4,32 L4,20 Z M44,18 L48,18 L48,34 L44,34 L44,18 Z M4,48 L35.171875,48 L40,52.828125 L40,55.171875 L35.171875,60 L4,60 L4,48 Z M48,62 L44,62 L44,46 L48,46 L48,62 Z M93.2158203,71.7158203 C91.345703,72.0898438 89.9990235,73.732422 90,75.6396485 L90,86 C90,89.3134765 87.3134765,92 84,92 L66,92 C59.3007812,91.9941405 53.1142578,88.4091797 49.7783203,82.5996095 L47.7382812,79.0195312 C47.1914062,78.060547 45.9697265,77.725586 45.0097655,78.272461 C44.0498047,78.8183595 43.7148438,80.040039 44.2617188,81 L46.303711,84.5820312 C50.352539,91.638672 57.8642578,95.993164 66,96 L74,96 L74,112 L30,112 L30,89.540039 C30,81.8203125 26.513672,77.3583985 22.8242188,72.633789 C20.600586,69.9472655 18.6367188,67.0566405 16.9580078,64 L36,64 C36.5302735,64 37.0390625,63.7890625 37.4140625,63.4140625 L40,60.828125 L40,62 C40,64.2089845 41.7910155,66 44,66 L48,66 C50.2089845,66 52,64.2089845 52,62 L52,61.9482422 C53.720703,63.2714845 55.8291015,63.9921875 58,64 C65.0576172,64 73.7460938,59.263672 75.9404297,50.484375 C76.1064452,49.8173828 75.9189452,49.1123047 75.444336,48.616211 C74.96875,48.1201172 74.272461,47.9023438 73.5996095,48.040039 C68.8984375,48.982422 67.6142577,48.0263672 65.8378905,46.7080078 C63.649414,44.8691405 60.857422,43.904297 58,44 C55.8291015,44.0078125 53.720703,44.7285155 52,46.0517578 L52,46 C52,43.7910155 50.2089845,42 48,42 L44,42 C41.7910155,42 40,43.7910155 40,46 L40,47.171875 L37.4140625,44.5859375 C37.0390625,44.2109375 36.5302735,44 36,44 L12.0976562,44 C12.0341797,42.6884765 12,41.3496095 12,40 C12,38.6621095 12.0888672,37.326172 12.265625,36 L36,36 C36.5302735,36 37.0390625,35.7890625 37.4140625,35.4140625 L40,32.828125 L40,34 C40,36.2089845 41.7910155,38 44,38 L48,38 C50.1513672,37.9941405 51.913086,36.2861328 51.986328,34.1357422 C54.6035155,34.3564453 57.1396485,35.1513673 59.4140625,36.4658203 C60.0830078,36.9160155 60.8710937,37.158203 61.6777345,37.1601562 C62.8476562,37.1669922 63.9560547,36.638672 64.6884765,35.725586 C67.5830077,32.4882812 71.038086,29.7998047 74.8876952,27.790039 C75.0683595,27.696289 75.2333985,27.576172 75.3779297,27.4335938 C75.4121095,27.4023438 75.435547,27.3623047 75.4677735,27.328125 C75.5908202,27.1904297 75.6933595,27.0371095 75.774414,26.8720703 C75.8046875,26.8134765 75.8310547,26.751953 75.8535155,26.6904297 C75.9423827,26.475586 75.991211,26.2470703 76,26.015625 L76,25.984375 C75.9941405,25.7529297 75.9482422,25.5253905 75.8642577,25.3095703 C75.841797,25.248047 75.814453,25.1865235 75.7841797,25.1279297 C75.703125,24.9628905 75.5996095,24.8095703 75.477539,24.671875 C75.446289,24.6376953 75.421875,24.5976562 75.3876952,24.5664062 C75.243164,24.423828 75.078125,24.303711 74.8984375,24.209961 C71.048828,22.205078 67.59375,19.522461 64.6982422,16.290039 C63.4023437,14.6992188 61.102539,14.3691405 59.4121095,15.5322265 C57.142578,16.8623047 54.616211,17.6953125 52,17.975586 C51.986328,15.7763672 50.2001952,14 48,14 L44,14 C41.7910155,14 40,15.7910155 40,18 L40,19.171875 L37.4140625,16.5859375 C37.0390625,16.2109375 36.5302735,16 36,16 L21.7441405,16 C27.482422,9.95800775 37.3603515,4 54,4 C71.5302735,4 92,15 92,46 L92,54 C92,54.3183595 92.076172,54.6328125 92.2216798,54.9160155 L100,70 L93.2158203,71.7158203 Z M52,54 C52,50.6865235 54.6865235,48 58,48 C60.0009765,47.9013673 61.959961,48.5898438 63.459961,49.9179688 C65.5253905,51.716797 68.225586,52.6103515 70.9560547,52.4003905 C68.2919922,57.0527345 63.361328,59.9453125 58,60 C54.6865235,60 52,57.3134765 52,54 Z M61.6220703,18.868164 L61.5996095,18.7998048 C63.2382813,20.748047 65.102539,22.4941405 67.154297,24 L62,24 C60.8955078,24 60,24.8955078 60,26 C60,27.1044923 60.8955078,28 62,28 L67.1416015,28 C65.1064453,29.486328 63.2548828,31.209961 61.6259765,33.133789 C58.694336,31.3945313 55.399414,30.361328 52,30.1142578 L52,22 C55.4003905,21.6835938 58.6865235,20.6132813 61.6220703,18.868164 Z" id="Shape"></path>
                </g>
            </g>
            <g id="Group" transform="translate(812.000000, 562.000000)" fill="#FFFFFF" fill-rule="nonzero">
                <g id="017-audio-course" transform="translate(19.000000, 8.750000)">
                    <path d="M35.5000663,76 L35.5000663,110.5 L27.0250663,110.5 C26.8750663,110.5 26.7750663,110.4 26.7750663,110.25 L26.7750663,97.025 C26.7750663,91.275 23.8250663,85.975 18.8750663,82.875 C7.02506627,75.425 -0.024933733,62.725 -3.55271368e-15,48.95 C0.025066267,38.4 4.25006627,28.4 11.8750663,20.85 C14.5750663,18.175 17.6000663,15.925 20.8250663,14.125 L20.8250663,30.25 C15.9500663,35.15 12.9250663,41.9 12.9250663,49.35 C12.9500663,62.7 22.7250663,73.85 35.5000663,76 Z" id="Path"></path>
                    <path d="M40.0250663,22.225 C36.4250663,22.225 33.0000663,22.925 29.8750663,24.2 L29.8750663,0.25 C29.8750663,0.1 29.9750663,3.55271368e-15 30.1250663,3.55271368e-15 L49.9250663,3.55271368e-15 C50.0750663,3.55271368e-15 50.1750663,0.1 50.1750663,0.25 L50.1750663,24.2 C47.0500663,22.95 43.6250663,22.225 40.0250663,22.225 Z" id="Path"></path>
                    <circle id="Oval" cx="40.0250663" cy="49.3" r="18.05"></circle>
                    <path d="M89.5500663,57.6 C90.0000663,58.25 89.8750663,59.125 89.2500663,59.6 L82.0500663,65.075 C80.9250663,65.925 80.2750663,67.25 80.2750663,68.675 L80.2750663,87.6 C80.2750663,88.5 79.5000663,89.2 78.5500663,89.2 L66.9250663,89.2 C64.4250663,89.2 62.4000663,91.225 62.4000663,93.725 L62.4000663,110.25 C62.4000663,110.4 62.3000663,110.5 62.1500663,110.5 L44.5250663,110.5 L44.5250663,76 C57.3250663,73.85 67.1000663,62.7 67.1000663,49.3 C67.1000663,41.85 64.0750663,35.1 59.2000663,30.2 L59.2000663,13.15 C70.8500663,18.9 79.5000663,29.975 81.4750663,43.2 C81.8500663,45.7 82.8250663,48.125 84.3250663,50.225 L89.5500663,57.6 Z" id="Path"></path>
                </g>
            </g>
        </g>
    </g>
</svg>