<?xml version="1.0" encoding="UTF-8"?>
<svg width="1295px" height="1615px" viewBox="0 0 1295 1615" version="1.1" xmlns="http://www.w3.org/2000/svg" xmlns:xlink="http://www.w3.org/1999/xlink">
    <title>Ecosystem/Core_2</title>
    <defs>
        <filter color-interpolation-filters="auto" id="filter-1">
            <feColorMatrix in="SourceGraphic" type="matrix" values="0 0 0 0 1.000000 0 0 0 0 1.000000 0 0 0 0 1.000000 0 0 0 1.000000 0"></feColorMatrix>
        </filter>
    </defs>
    <g id="Ecosystem/Core_2" stroke="none" stroke-width="1" fill="none" fill-rule="evenodd">
        <rect fill="#000000" x="0" y="0" width="1295" height="1615"></rect>
        <g id="Group" transform="translate(758.000000, 840.000000)" fill="#FFFFFF" fill-rule="nonzero">
            <g id="Icon/Bleeps/Bleep">
                <path d="M12.5,55.92 L12.5,55.92 C11.3955,55.92 10.5,56.8155 10.5,57.92 L10.5,70.32 C10.5,71.4245 11.3955,72.32 12.5,72.32 C13.6045,72.32 14.5,71.4245 14.5,70.32 L14.5,57.92 C14.5,56.8155 13.6045,55.92 12.5,55.92 Z" id="Path"></path>
                <path d="M20.42,45.82 C19.3155,45.82 18.42,46.7155 18.42,47.82 L18.42,80.42 C18.42,81.5245 19.3155,82.42 20.42,82.42 C21.5245,82.42 22.42,81.5245 22.42,80.42 L22.42,47.82 C22.42,46.7155 21.5245,45.82 20.42,45.82 Z" id="Path"></path>
                <path d="M28.34,49.32 C27.2355,49.32 26.34,50.2155 26.34,51.32 L26.34,76.92 C26.34,78.0245 27.2355,78.92 28.34,78.92 C29.4445,78.92 30.34,78.0245 30.34,76.92 L30.34,51.32 C30.34,50.2155 29.4445,49.32 28.34,49.32 Z" id="Path"></path>
                <path d="M36.26,55.92 L36.26,55.92 C35.1555,55.92 34.26,56.8155 34.26,57.92 L34.26,70.32 C34.26,71.4245 35.1555,72.32 36.26,72.32 C37.3645,72.32 38.26,71.4245 38.26,70.32 L38.26,57.92 C38.26,56.8155 37.3645,55.92 36.26,55.92 Z" id="Path"></path>
                <path d="M44.2,38.5 C43.0955,38.5 42.2,39.3955 42.2,40.5 L42.2,87.74 C42.2,88.8445 43.0955,89.74 44.2,89.74 C45.3045,89.74 46.2,88.8445 46.2,87.74 L46.2,40.5 C46.2,39.3955 45.3045,38.5 44.2,38.5 Z" id="Path"></path>
                <path d="M52.12,48.26 C51.0155,48.26 50.12,49.1555 50.12,50.26 L50.12,77.98 C50.12,79.0845 51.0155,79.98 52.12,79.98 C53.2245,79.98 54.12,79.0845 54.12,77.98 L54.12,50.26 C54.12,49.1555 53.2245,48.26 52.12,48.26 Z" id="Path"></path>
                <path d="M60,51.6 C58.8955,51.6 58,52.4955 58,53.6 L58,74.64 C58,75.7445 58.8955,76.64 60,76.64 C61.1045,76.64 62,75.7445 62,74.64 L62,53.6 C62,52.4955 61.1045,51.6 60,51.6 Z" id="Path"></path>
                <path d="M68,55.92 L68,55.92 C66.8955,55.92 66,56.8155 66,57.92 L66,70.32 C66,71.4245 66.8955,72.32 68,72.32 C69.1045,72.32 70,71.4245 70,70.32 L70,57.92 C70,56.8155 69.1045,55.92 68,55.92 Z" id="Path"></path>
                <path d="M75.88,51.6 C74.7755,51.6 73.88,52.4955 73.88,53.6 L73.88,74.64 C73.88,75.7445 74.7755,76.64 75.88,76.64 C76.9845,76.64 77.88,75.7445 77.88,74.64 L77.88,53.6 C77.88,52.4955 76.9845,51.6 75.88,51.6 Z" id="Path"></path>
                <path d="M83.8,48.26 C82.6955,48.26 81.8,49.1555 81.8,50.26 L81.8,77.98 C81.8,79.0845 82.6955,79.98 83.8,79.98 C84.9045,79.98 85.8,79.0845 85.8,77.98 L85.8,50.26 C85.8,49.1555 84.9045,48.26 83.8,48.26 Z" id="Path"></path>
                <path d="M91.74,38.5 C90.6355,38.5 89.74,39.3955 89.74,40.5 L89.74,87.74 C89.74,88.8445 90.6355,89.74 91.74,89.74 C92.8445,89.74 93.74,88.8445 93.74,87.74 L93.74,40.5 C93.74,39.3955 92.8445,38.5 91.74,38.5 Z" id="Path"></path>
                <path d="M99.66,49.32 C98.5555,49.32 97.66,50.2155 97.66,51.32 L97.66,76.92 C97.66,78.0245 98.5555,78.92 99.66,78.92 C100.7645,78.92 101.66,78.0245 101.66,76.92 L101.66,51.32 C101.66,50.2155 100.7645,49.32 99.66,49.32 Z" id="Path"></path>
                <path d="M107.58,55.92 L107.58,55.92 C106.4755,55.92 105.58,56.8155 105.58,57.92 L105.58,70.32 C105.58,71.4245 106.4755,72.32 107.58,72.32 C108.6845,72.32 109.58,71.4245 109.58,70.32 L109.58,57.92 C109.58,56.8155 108.6845,55.92 107.58,55.92 Z" id="Path"></path>
                <path d="M115.5,55.92 L115.5,55.92 C114.3955,55.92 113.5,56.8155 113.5,57.92 L113.5,70.32 C113.5,71.4245 114.3955,72.32 115.5,72.32 C116.6045,72.32 117.5,71.4245 117.5,70.32 L117.5,57.92 C117.5,56.8155 116.6045,55.92 115.5,55.92 Z" id="Path"></path>
            </g>
        </g>
        <g id="Group" transform="translate(430.000000, 840.000000)" fill="#FFFFFF" fill-rule="nonzero">
            <g id="Icon/Bleeps/Melody">
                <path d="M54.325,61.875 L10.725,61.875 C9.075,61.875 7.75,63.2 7.75,64.85 C7.75,66.5 9.075,67.825 10.725,67.825 L54.325,67.825 C55.975,67.825 57.3,66.5 57.3,64.85 C57.3,63.2 55.975,61.875 54.325,61.875 Z M54.325,45.375 L10.725,45.375 C9.075,45.375 7.75,46.7 7.75,48.35 C7.75,49.975 9.075,51.325 10.725,51.325 L54.325,51.325 C55.975,51.325 57.3,49.975 57.3,48.35 C57.3,46.7 55.975,45.375 54.325,45.375 Z M54.325,28.875 L10.725,28.875 C9.075,28.875 7.75,30.225 7.75,31.85 C7.75,33.5 9.075,34.825 10.725,34.825 L54.325,34.825 C55.975,34.825 57.3,33.5 57.3,31.85 C57.3,30.2 55.975,28.875 54.325,28.875 Z M112.3,44.125 C110.5,41.85 108.3,39.5 105.975,36.975 C103.8,34.625 101.525,32.225 99.4,29.65 C94.45,23.65 93.75,17.775 93.125,12.575 C93.025,11.8 92.95,11.05 92.85,10.325 L92.85,10.725 C92.55,9.05 91.15,7.75 89.375,7.75 C87.375,7.75 85.775,9.375 85.775,11.35 L85.775,91.85 C84.275,91.5 82.525,91.325 80.425,91.325 C75.95,91.325 70.45,93.55 66.075,97.1 C61.275,100.9 58.525,105.6 58.525,110 C58.525,112.975 59.775,115.625 62.05,117.425 C64.2,119.2 67.25,120.225 70.425,120.225 C75.5,120.225 81.125,118.175 85.45,114.775 C90.325,111.025 93,106.275 93,101.425 L92.925,101.275 C92.925,101.15 93,101.05 93,100.95 L93,40.875 C98.725,41.575 105.4,45.55 109.475,50.825 C113.05,55.275 116.8,62.85 117.025,68.825 C117.025,69.075 117.225,69.3 117.45,69.35 C117.7,69.4 117.95,69.275 118.05,69.05 L120.175,64.75 C120.225,64.675 120.225,64.6 120.225,64.5 C120.2,57.7 117.4,50.475 112.3,44.125 L112.3,44.125 Z" id="Shape"></path>
            </g>
        </g>
        <g id="Group" transform="translate(430.000000, 1168.000000)" fill="#FFFFFF" fill-rule="nonzero">
            <g id="Icon/Bleeps/Royalties">
                <circle id="Oval" cx="4.57142857" cy="18.2857143" r="4.57142857"></circle>
                <ellipse id="Oval" cx="65.1428571" cy="64" rx="3.42857143" ry="2.28571429"></ellipse>
                <path d="M68.5714671,43.4285714 C68.5752272,42.777733 68.2977566,42.1569653 67.8102857,41.7257143 C67.3311543,41.2835737 66.680968,41.0760496 66.0342857,41.1588571 L54.6057143,42.4297143 C53.4485294,42.5577813 52.5725131,43.5351792 52.5714286,44.6994286 L52.5714286,47.7325714 L68.5714671,45.9542857 L68.5714671,43.4285714 Z" id="Shape"></path>
                <circle id="Oval" cx="59.4285714" cy="4.57142857" r="4.57142857"></circle>
                <circle id="Oval" cx="114.285714" cy="18.2857143" r="4.57142857"></circle>
                <ellipse id="Oval" cx="44.5714286" cy="64" rx="3.42857143" ry="2.28571429"></ellipse>
                <path d="M100.571429,82.2857143 C90.4725074,82.2857143 82.2857143,90.4725074 82.2857143,100.571429 C82.2857143,110.67035 90.4725074,118.857143 100.571429,118.857143 C110.67035,118.857143 118.857143,110.67035 118.857143,100.571429 C118.845806,90.4772071 110.66565,82.2970512 100.571429,82.2857143 Z M102.857143,111.579429 L102.857143,112 C102.857143,113.262365 101.833794,114.285714 100.571429,114.285714 C99.3090635,114.285714 98.2857143,113.262365 98.2857143,112 L98.2857143,111.542857 C96.7532521,111.016715 95.4572757,109.963734 94.6285714,108.571429 C94.0430793,107.483444 94.4281362,106.127123 95.4979664,105.509082 C96.5677966,104.89104 97.9351141,105.235012 98.5851429,106.285714 C99.1393403,107.245601 100.302344,107.669548 101.344259,107.291488 C102.386175,106.913428 103.006699,105.842327 102.816395,104.750402 C102.626091,103.658476 101.679809,102.860443 100.571429,102.857143 C97.2355719,102.863464 94.3815294,100.462884 93.8162576,97.175264 C93.2509858,93.8876437 95.13932,90.6716624 98.2857143,89.5634286 L98.2857143,89.1428571 C98.2857143,87.8804921 99.3090635,86.8571429 100.571429,86.8571429 C101.833794,86.8571429 102.857143,87.8804921 102.857143,89.1428571 L102.857143,89.6 C104.389605,90.1261422 105.685581,91.179123 106.514286,92.5714286 C107.099778,93.6594133 106.714721,95.0157339 105.644891,95.6337755 C104.575061,96.2518171 103.207743,95.9078448 102.557714,94.8571429 C102.003517,93.8972562 100.840513,93.4733095 99.7985977,93.8513691 C98.7566823,94.229429 98.1361577,95.3005301 98.3264617,96.3924555 C98.5167657,97.4843813 99.4630485,98.2824144 100.571429,98.2857143 C103.907285,98.2793934 106.761328,100.679973 107.3266,103.967593 C107.891871,107.255213 106.003537,110.471195 102.857143,111.579429 Z" id="Shape"></path>
                <path d="M13.7142857,86.8571429 L13.7142857,93.7142857 L69.3302857,93.7142857 C70.0395995,90.5001264 71.2440645,87.415709 72.9005714,84.5714286 L16,84.5714286 C14.7376349,84.5714286 13.7142857,85.5947778 13.7142857,86.8571429 Z" id="Shape"></path>
                <path d="M11.4285714,98.2857143 C10.8334073,98.2802624 10.2616133,98.5170661 9.84457143,98.9417143 C9.39562539,99.3647243 9.1416435,99.9545911 9.14285281,100.571429 C9.14285281,101.833794 10.1662063,102.857143 11.4285714,102.857143 L68.688,102.857143 C68.6331429,102.098286 68.5714286,101.344 68.5714286,100.571429 C68.5714286,99.7988571 68.6331429,99.0445714 68.688,98.2857143 L11.4285714,98.2857143 Z" id="Shape"></path>
                <path d="M100.571429,73.1428571 C85.4230469,73.1428571 73.1428571,85.4230469 73.1428571,100.571429 C73.1428571,115.71981 85.4230469,128 100.571429,128 C115.71981,128 128,115.71981 128,100.571429 C127.983623,85.4298354 115.713022,73.1592338 100.571429,73.1428571 Z M100.571429,123.428571 C87.9477771,123.428571 77.7142857,113.19508 77.7142857,100.571429 C77.7142857,87.9477771 87.9477771,77.7142857 100.571429,77.7142857 C113.19508,77.7142857 123.428571,87.9477771 123.428571,100.571429 C123.414715,113.189336 113.189336,123.414715 100.571429,123.428571 Z" id="Shape"></path>
                <path d="M76.096,80 C82.161899,72.7570761 91.1239381,68.572336 100.571429,68.5714286 C101.52,68.5714286 102.452571,68.6331429 103.378286,68.7131429 L112.096,27.1337143 C110.866631,26.8259125 109.715159,26.2645794 108.715429,25.4857143 L88.8868571,48.5097143 C87.9781751,49.6295664 86.610115,50.2761787 85.168,50.2674286 C84.9686158,50.2663959 84.7694459,50.2541863 84.5714286,50.2308571 C82.9032263,50.0310016 81.459931,48.9758194 80.7634286,47.4468571 L63.7897143,12.5577143 C61.0868032,14.0999462 57.7703397,14.0999462 55.0674286,12.5577143 L38.0777143,47.4902857 C37.3746306,48.9996969 35.9395063,50.0368965 34.2857143,50.2308571 C34.0869467,50.2543541 33.8870069,50.2665641 33.6868571,50.2674286 C32.2155323,50.2669632 30.8252942,49.5933166 29.9131429,48.4388571 L10.1417143,25.4857143 C9.14198434,26.2645794 7.99051221,26.8259125 6.76114286,27.1337143 L17.856,80 L76.096,80 Z M44.5714286,57.1428571 C45.7480907,57.1454231 46.9128635,57.3783776 48,57.8285714 L48,44.6994286 C47.9996318,41.2048421 50.6273205,38.2689979 54.1005714,37.8834286 L65.5291429,36.6148571 C67.4673143,36.3996985 69.405419,37.0199355 70.8585602,38.3203899 C72.3117013,39.6208446 73.1424126,41.4784942 73.1428571,43.4285714 L73.1428571,64 C72.799144,68.0883577 69.2356843,71.1427515 65.1428571,70.8571429 C61.0500299,71.1427515 57.4865703,68.0883577 57.1428571,64 C57.4865703,59.9116423 61.0500299,56.8572485 65.1428571,57.1428571 C66.3195193,57.1454231 67.4842921,57.3783776 68.5714286,57.8285714 L68.5714286,50.5531429 L52.5714286,52.3428571 L52.5714286,64 C52.2277154,68.0883577 48.6642558,71.1427515 44.5714286,70.8571429 C40.4786014,71.1427515 36.9151417,68.0883577 36.5714286,64 C36.9151417,59.9116423 40.4786014,56.8572485 44.5714286,57.1428571 Z" id="Shape"></path>
            </g>
        </g>
        <g id="Group" transform="translate(758.000000, 1168.000000)" fill="#FFFFFF" fill-rule="nonzero">
            <g id="Icon/Generic/DAO">
                <path d="M114,82.20125 L114,45.79875 C118.559,44.86975 122,40.82925 122,36 C122,30.486 117.514,26 112,26 C109.041,26 106.379,27.293 104.5465,29.3425 L73.8935,11.45075 C73.96275,10.97675 74,10.49275 74,10 C74,4.486 69.514,0 64,0 C58.486,0 54,4.486 54,10 C54,10.49275 54.03725,10.97675 54.1065,11.45075 L23.4535,29.3425 C21.621,27.293 18.95925,26 16,26 C10.486,26 6,30.486 6,36 C6,40.82925 9.441,44.86975 14,45.79875 L14,82.20125 C9.441,83.13025 6,87.17075 6,92 C6,97.514 10.486,102 16,102 C18.95975,102 21.622,100.70625 23.45475,98.656 L54.10675,116.54725 C54.0375,117.02175 54,117.5065 54,117.99975 C54,123.51375 58.486,127.99975 64,127.99975 C69.514,127.99975 74,123.51375 74,117.99975 C74,117.50625 73.96275,117.02175 73.89325,116.54725 L104.54525,98.656 C106.378,100.70625 109.04025,102 112,102 C117.514,102 122,97.514 122,92 C122,87.17075 118.559,83.13025 114,82.20125 Z M108.77475,82.53675 L90.299,50.9725 L104.54625,42.6575 C105.95475,44.23275 107.85275,45.36125 109.99975,45.799 L109.99975,82.2015 C109.58125,82.2865 109.173,82.40075 108.77475,82.53675 Z M66,90 L66,73.79875 C68.147,73.36125 70.045,72.2325 71.4535,70.65725 L102.53,88.79425 C102.397,89.18625 102.285,89.588 102.20125,89.99975 L66,89.99975 L66,90 Z M25.79875,90 C25.71475,89.588 25.603,89.1865 25.47,88.7945 L56.5465,70.6575 C57.955,72.23275 59.853,73.36125 62,73.799 L62,90 L25.79875,90 Z M18,82.20125 L18,45.79875 C20.147,45.36125 22.045,44.2325 23.4535,42.65725 L37.70075,50.97225 L19.22525,82.53675 C18.827,82.40075 18.41875,82.2865 18,82.20125 Z M41.15375,52.98775 L54.53,60.7945 C54.18825,61.8015 54,62.879 54,64 C54,65.121 54.18825,66.1985 54.53,67.2055 L23.4535,85.3425 C23.20775,85.06775 22.9475,84.80625 22.67325,84.56 L41.15375,52.98775 Z M62,19.79875 L62,54.20125 C59.853,54.63875 57.955,55.7675 56.5465,57.34275 L43.17325,49.53775 L60.7765,19.464 C61.174,19.59975 61.58175,19.7135 62,19.79875 Z M67.2235,19.46375 L84.82675,49.5375 L71.4535,57.3425 C70.045,55.76725 68.147,54.63875 66,54.201 L66,19.79875 C66.41825,19.7135 66.826,19.59975 67.2235,19.46375 Z M104.5465,85.3425 L73.47,67.2055 C73.81175,66.1985 74,65.121 74,64 C74,62.879 73.81175,61.8015 73.47,60.7945 L86.84625,52.98775 L105.32675,84.56025 C105.0525,84.8065 104.79225,85.06775 104.5465,85.3425 Z M102.53,32.79425 C102.18825,33.80125 102,34.87875 102,36 C102,37.12125 102.18825,38.1985 102.53,39.2055 L88.2795,47.5225 L70.672,17.441 C71.3785,16.807 71.99375,16.074 72.49725,15.26425 L102.53,32.79425 Z M55.503,15.26425 C56.0065,16.074 56.62175,16.807 57.32825,17.441 L39.72025,47.5225 L25.46975,39.2055 C25.8115,38.1985 25.99975,37.121 25.99975,36 C25.99975,34.87875 25.8115,33.8015 25.46975,32.79425 L55.503,15.26425 Z M25.4705,95.204 C25.60325,94.8125 25.715,94.4115 25.79875,94 L62,94 L62,108.20125 C59.26425,108.75875 56.9325,110.43775 55.504,112.73425 L25.4705,95.204 Z M72.496,112.73425 C71.0675,110.43775 68.73575,108.75875 66,108.20125 L66,94 L102.20125,94 C102.285,94.4115 102.39675,94.8125 102.5295,95.204 L72.496,112.73425 Z" id="Shape"></path>
            </g>
        </g>
        <text id="Bleep" font-family="HelveticaNeue-Bold, Helvetica Neue" font-size="32" font-weight="bold" fill="#FFFFFF">
            <tspan x="778.464" y="999">Bleep</tspan>
        </text>
        <text id="Mint" font-family="HelveticaNeue-Bold, Helvetica Neue" font-size="32" font-weight="bold" fill="#DAB894">
            <tspan x="832" y="759">Mint</tspan>
        </text>
        <text id="Create" font-family="HelveticaNeue-Bold, Helvetica Neue" font-size="32" font-weight="bold" fill="#DAB894">
            <tspan x="382.048" y="759">Create</tspan>
        </text>
        <text id="Users" font-family="HelveticaNeue-Bold, Helvetica Neue" font-size="32" font-weight="bold" fill="#FFFFFF">
            <tspan x="613.552" y="331">Users</tspan>
        </text>
        <text id="Melody" font-family="HelveticaNeue-Bold, Helvetica Neue" font-size="32" font-weight="bold" fill="#FFFFFF">
            <tspan x="438.32" y="999">Melody</tspan>
        </text>
        <text id="Bleeper" font-family="HelveticaNeue-Bold, Helvetica Neue" font-size="32" font-weight="bold" fill="#FFFFFF">
            <tspan x="763.056" y="671">Bleeper</tspan>
        </text>
        <text id="DAO" font-family="HelveticaNeue-Bold, Helvetica Neue" font-size="32" font-weight="bold" fill="#FFFFFF">
            <tspan x="786.736" y="1327">DAO</tspan>
        </text>
        <text id="Sale-Profit" font-family="HelveticaNeue-Bold, Helvetica Neue" font-size="32" font-weight="bold" fill="#FFFFFF">
            <tspan x="413.88" y="1327">Sale Profit</tspan>
        </text>
        <text id="Creator" font-family="HelveticaNeue-Bold, Helvetica Neue" font-size="32" font-weight="bold" fill="#FFFFFF">
            <tspan x="436.208" y="667">Creator</tspan>
        </text>
        <g id="014-networking" transform="translate(594.000000, 172.000000)" filter="url(#filter-1)">
            <g transform="translate(4.000000, 4.000000)">
                <path d="M96,48 C109.234375,48 120,37.234375 120,24 C120,10.765625 109.234375,0 96,0 C86.3896485,0 78.1035155,5.69042975 74.274414,13.868164 L67.8476562,11.4960938 C67.923828,11.0039062 68,10.5117188 68,10 C68,4.486328 63.513672,0 58,0 C52.486328,0 48,4.486328 48,10 C48,15.513672 52.486328,20 58,20 C61.5820313,20 64.7060547,18.0898438 66.4716797,15.251953 L72.8876953,17.6201172 C72.3242188,19.65625 72,21.788086 72,24 C72,26.6201172 72.435547,29.1357422 73.2158203,31.498047 L51.2197265,40.8203125 C47.1923828,33.2060547 39.1982422,28 30,28 C27.0195312,28 24.1757812,28.5722655 21.540039,29.5683595 L16.0078125,17.9423828 C18.4179688,16.1142578 20,13.25 20,10 C20,4.486328 15.513672,0 10,0 C4.486328,0 0,4.486328 0,10 C0,15.513672 4.486328,20 10,20 C10.8320312,20 11.6298828,19.868164 12.404297,19.673828 L17.9296875,31.288086 C10.8076172,35.4560547 6,43.1679688 6,52 C6,60.2958985 10.232422,67.618164 16.6484375,71.9296875 L12.9902345,78.5058595 C12.038086,78.2060547 11.0478515,78 10,78 C4.486328,78 0,82.486328 0,88 C0,93.513672 4.486328,98 10,98 C15.513672,98 20,93.513672 20,88 C20,84.9716797 18.618164,82.2861328 16.486328,80.4521485 L20.1523438,73.8623047 C23.1601562,75.2236327 26.4882812,76 30,76 C35.4882812,76 40.5361328,74.1279298 44.5839845,71.015625 L52.4560547,79.6757812 C48.4638672,83.9638672 46,89.6923828 46,96 C46,97.2236327 46.1220703,98.4160155 46.2978515,99.5898438 L37.0361328,101.788086 C35.4423828,98.3798827 32.0039062,96 28,96 C22.486328,96 18,100.486328 18,106 C18,111.513672 22.486328,116 28,116 C33.513672,116 38,111.513672 38,106 C38,105.889649 37.9697265,105.786133 37.9677735,105.675781 L47.211914,103.484375 C50.3642578,113.061523 59.3798828,120 70,120 C83.234375,120 94,109.234375 94,96 C94,91.8964845 92.961914,88.0322265 91.1376953,84.6523438 L102.885742,77.013672 C104.702149,78.8535155 107.217774,80 110,80 C115.513672,80 120,75.513672 120,70 C120,64.486328 115.513672,60 110,60 C104.486328,60 100,64.486328 100,70 C100,71.2919923 100.265625,72.5195312 100.713867,73.654297 L88.9384765,81.3095702 C86.5820312,78.2802735 83.522461,75.8339845 80,74.209961 L89.7617188,47.1484375 C91.7539062,47.685547 93.8398438,48 96,48 Z M58,16 C54.6923828,16 52,13.3076172 52,10 C52,6.69238275 54.6923828,4 58,4 C61.3076172,4 64,6.69238275 64,10 C64,13.3076172 61.3076172,16 58,16 Z M4,10 C4,6.69238275 6.69238275,4 10,4 C13.3076173,4 16,6.69238275 16,10 C16,13.3076172 13.3076173,16 10,16 C6.69238275,16 4,13.3076172 4,10 Z M10,94 C6.69238275,94 4,91.3076172 4,88 C4,84.6923828 6.69238275,82 10,82 C13.3076173,82 16,84.6923828 16,88 C16,91.3076172 13.3076173,94 10,94 Z M28,112 C24.6923828,112 22,109.307617 22,106 C22,102.692383 24.6923828,100 28,100 C31.3076173,100 34,102.692383 34,106 C34,109.307617 31.3076173,112 28,112 Z M110,64 C113.307617,64 116,66.6923828 116,70 C116,73.3076172 113.307617,76 110,76 C106.692383,76 104,73.3076172 104,70 C104,66.6923828 106.692383,64 110,64 Z M84.2216798,40.1279297 C85.1142578,35.501953 89.1923828,32 94,32 L98,32 C102.807617,32 106.885742,35.501953 107.77832,40.1279297 C104.469727,42.5498047 100.40625,44 96,44 C91.59375,44 87.5302735,42.5498047 84.2216798,40.1279297 Z M96,28 C92.6923828,28 90,25.3076172 90,22 C90,18.6923828 92.6923828,16 96,16 C99.3076172,16 102,18.6923828 102,22 C102,25.3076172 99.3076172,28 96,28 Z M96,4 C107.02832,4 116,12.9716797 116,24 C116,29 114.141602,33.5683595 111.095703,37.078125 C109.694336,33.3876953 106.772461,30.4423828 103.131836,28.9882812 C104.902344,27.1835938 106,24.7197265 106,22 C106,16.486328 101.513672,12 96,12 C90.486328,12 86,16.486328 86,22 C86,24.7197265 87.0976562,27.1835938 88.868164,28.9882812 C85.227539,30.4423828 82.305664,33.3876953 80.904297,37.078125 C77.8583985,33.5683595 76,29 76,24 C76,12.9716797 84.9716798,4 96,4 L96,4 Z M10,52 C10,40.9716797 18.9716798,32 30,32 C41.0283203,32 50,40.9716797 50,52 C50,57.015625 48.1298828,61.595703 45.0683595,65.1103515 C43.671875,61.40625 40.7441405,58.446289 37.09375,56.9882813 C38.8623048,55.1835938 39.959961,52.7197265 39.959961,50 C39.959961,44.486328 35.4736328,40 29.959961,40 C24.446289,40 19.959961,44.486328 19.959961,50 C19.959961,52.7197265 21.0576173,55.1835938 22.828125,56.9882813 C19.1982423,58.435547 16.2802735,61.3701173 14.8740235,65.0458985 C11.845703,61.540039 10,56.986328 10,52 L10,52 Z M23.959961,50 C23.959961,46.6923828 26.6523438,44 29.959961,44 C33.267578,44 35.959961,46.6923828 35.959961,50 C35.959961,53.3076172 33.267578,56 29.959961,56 C26.6523438,56 23.959961,53.3076172 23.959961,50 Z M18.1884765,68.1015625 C19.0898438,63.4882812 23.1621095,60 27.959961,60 L31.959961,60 C36.7763673,60 40.8623048,63.513672 41.7421875,68.154297 C38.4404298,70.5615235 34.3896485,72 30,72 C25.578125,72 21.501953,70.540039 18.1884765,68.1015625 Z M58.1884765,112.101562 C59.0898438,107.488281 63.1621095,104 67.959961,104 L71.959961,104 C76.7763672,104 80.8623047,107.513672 81.7421875,112.154297 C78.4404297,114.561523 74.3896485,116 70,116 C65.578125,116 61.501953,114.540039 58.1884765,112.101562 Z M69.959961,100 C66.6523438,100 63.959961,97.3076172 63.959961,94 C63.959961,90.6923828 66.6523438,88 69.959961,88 C73.267578,88 75.959961,90.6923828 75.959961,94 C75.959961,97.3076172 73.267578,100 69.959961,100 Z M90,96 C90,101.015625 88.1298828,105.595703 85.0683595,109.110352 C83.671875,105.40625 80.7441405,102.446289 77.09375,100.988281 C78.8623048,99.1835938 79.959961,96.7197265 79.959961,94 C79.959961,88.486328 75.4736328,84 69.959961,84 C64.446289,84 59.959961,88.486328 59.959961,94 C59.959961,96.7197265 61.0576172,99.1835938 62.828125,100.988281 C59.1982422,102.435547 56.2802735,105.370117 54.8740235,109.045898 C51.845703,105.540039 50,100.986328 50,96 C50,84.9716797 58.9716797,76 70,76 C81.0283203,76 90,84.9716797 90,96 Z M76.2382812,72.8515625 C74.2460937,72.314453 72.1601562,72 70,72 C64.5117187,72 59.4638672,73.8720702 55.4160155,76.984375 L47.5439452,68.3242188 C51.5361327,64.0361328 54,58.3076172 54,52 C54,49.3798828 53.564453,46.8642578 52.7841797,44.501953 L74.7802735,35.1796875 C77.2441405,39.8378905 81.1982422,43.576172 86.001953,45.790039 L76.2382812,72.8515625 Z" id="Shape" fill="#000000" fill-rule="nonzero"></path>
            </g>
        </g>
        <path id="Line" d="M660,348 L660,400 L824,400 L824,476 L834,476 L822,500 L810,476 L820,476 L820,404 L656,404 L656,348 L660,348 Z" fill="#DAB894" fill-rule="nonzero"></path>
        <path id="Line" d="M496,348 L496,400 L660,400 L660,476 L670,476 L658,500 L646,476 L656,476 L656,404 L492,404 L492,348 L496,348 Z" fill="#DAB894" fill-rule="nonzero"></path>
        <text id="Uses" font-family="HelveticaNeue-Bold, Helvetica Neue" font-size="32" font-weight="bold" fill="#DAB894">
            <tspan x="622" y="947">Uses</tspan>
        </text>
        <path id="Line" d="M722,892 L746,904 L722,916 L722,906 L568,906 L568,902 L722,902 L722,892 Z" fill="#DAB894" fill-rule="nonzero"></path>
        <text id="5%" font-family="HelveticaNeue-Bold, Helvetica Neue" font-size="32" font-weight="bold" fill="#DAB894">
            <tspan x="990.208" y="1273">5%</tspan>
        </text>
        <text id="90%" font-family="HelveticaNeue-Bold, Helvetica Neue" font-size="32" font-weight="bold" fill="#DAB894">
            <tspan x="255" y="617">90%</tspan>
        </text>
        <text id="5%" font-family="HelveticaNeue-Bold, Helvetica Neue" font-size="32" font-weight="bold" fill="#DAB894">
            <tspan x="990.208" y="617">5%</tspan>
        </text>
        <path id="Line" d="M496,688 L496,804 L506,804 L494,828 L482,804 L492,804 L492,688 L496,688 Z" fill="#DAB894" fill-rule="nonzero"></path>
        <text id="Auction" font-family="HelveticaNeue-Bold, Helvetica Neue" font-size="32" font-weight="bold" fill="#DAB894">
            <tspan x="366.688" y="1087">Auction</tspan>
        </text>
        <path id="Line" d="M496,1016 L496,1132 L506,1132 L494,1156 L482,1132 L492,1132 L492,1016 L496,1016 Z" fill="#DAB894" fill-rule="nonzero"></path>
        <text id="Govern" font-family="HelveticaNeue-Bold, Helvetica Neue" font-size="32" font-weight="bold" fill="#DAB894">
            <tspan x="832" y="1087">Govern</tspan>
        </text>
        <path id="Line" d="M824,1016 L824,1132 L834,1132 L822,1156 L810,1132 L820,1132 L820,1016 L824,1016 Z" fill="#DAB894" fill-rule="nonzero"></path>
        <path id="Line" d="M396,564 L420,576 L396,588 L395.999,577.999 L247.045,577.999 L247.045,1440.564 L492,1440.564 L492,1344 L496,1344 L496,1444.56404 L243.045253,1444.56404 L243.045253,574 L395.999,573.999 L396,564 Z" fill="#DAB894" fill-rule="nonzero"></path>
        <path id="Line" d="M920,588 L896,576 L920,564 L920,573.999 L1052,574 L1052,1444.56404 L492,1444.56404 L492,1344 L496,1344 L496,1440.564 L1048,1440.564 L1048,577.999 L920,577.999 L920,588 Z" fill="#DAB894" fill-rule="nonzero"></path>
        <path id="Line" d="M920,1244 L896,1232 L920,1220 L920,1229.999 L1052,1230 L1052,1444.56404 L492,1444.56404 L492,1344 L496,1344 L496,1440.564 L1048,1440.564 L1048,1233.999 L920,1233.999 L920,1244 Z" fill="#DAB894" fill-rule="nonzero"></path>
        <path id="Line" d="M824,688 L824,804 L834,804 L822,828 L810,804 L820,804 L820,688 L824,688 Z" fill="#DAB894" fill-rule="nonzero"></path>
        <g id="Group" transform="translate(430.000000, 512.000000)" fill="#FFFFFF" fill-rule="nonzero">
            <g id="Icon/Bleeps/Composer">
                <path d="M115.599609,74.263672 L108,59.515625 L108,52 C108,20.2216797 86.90625,6 66,6 C45.484375,6 34.3339845,14.5117188 28.482422,22 L14,22 C12.8955078,22 12,22.8955078 12,24 L12,40 C12,41.1044922 12.8955078,42 14,42 L20.263672,42 C20.0986328,43.3271485 20.0107422,44.663086 20,46 C20,47.3496095 20.0439453,48.6816405 20.1064453,50 L14,50 C12.8955078,50 12,50.8955078 12,52 L12,68 C12,69.1044922 12.8955078,70 14,70 L24.5117188,70 C26.4433595,73.9746095 28.8476562,77.7001953 31.671875,81.0976562 C35.2001953,85.6240235 38,89.2001953 38,95.540039 L38,118 C38,120.208984 39.7910155,122 42,122 L86,122 C88.2089845,122 90,120.208984 90,118 L90,102 L96,102 C101.520508,101.993164 105.993164,97.5205078 106,92 L106.089844,81.6201172 L112.793945,79.921875 C114.660156,79.5439452 116,77.9033202 116,76 C115.99707,75.3984375 115.860351,74.805664 115.599609,74.263672 Z M16,26 L47.171875,26 L52,30.828125 L52,33.171875 L47.171875,38 L16,38 L16,26 Z M56,24 L60,24 L60,40 L56,40 L56,24 Z M16,54 L47.171875,54 L52,58.828125 L52,61.171875 L47.171875,66 L16,66 L16,54 Z M60,68 L56,68 L56,52 L60,52 L60,68 Z M105.21582,77.7158203 C103.345703,78.0898438 101.999024,79.732422 102,81.6396485 L102,92 C102,95.3134765 99.3134765,98 96,98 L78,98 C71.3007812,97.9941405 65.1142578,94.4091797 61.7783203,88.5996095 L59.7382812,85.0195312 C59.1914062,84.060547 57.9697265,83.725586 57.0097655,84.272461 C56.0498047,84.8183595 55.7148438,86.040039 56.2617188,87 L58.303711,90.5820312 C62.352539,97.638672 69.8642578,101.993164 78,102 L86,102 L86,118 L42,118 L42,95.540039 C42,87.8203125 38.513672,83.3583985 34.8242188,78.633789 C32.600586,75.9472655 30.6367188,73.0566405 28.9580078,70 L48,70 C48.5302735,70 49.0390625,69.7890625 49.4140625,69.4140625 L52,66.828125 L52,68 C52,70.2089845 53.7910155,72 56,72 L60,72 C62.2089845,72 64,70.2089845 64,68 L64,67.9482422 C65.720703,69.2714845 67.8291015,69.9921875 70,70 C77.0576172,70 85.7460938,65.263672 87.9404297,56.484375 C88.1064452,55.8173828 87.9189452,55.1123047 87.444336,54.616211 C86.96875,54.1201172 86.272461,53.9023438 85.5996095,54.040039 C80.8984375,54.982422 79.6142577,54.0263672 77.8378905,52.7080078 C75.649414,50.8691405 72.857422,49.904297 70,50 C67.8291015,50.0078125 65.720703,50.7285155 64,52.0517578 L64,52 C64,49.7910155 62.2089845,48 60,48 L56,48 C53.7910155,48 52,49.7910155 52,52 L52,53.171875 L49.4140625,50.5859375 C49.0390625,50.2109375 48.5302735,50 48,50 L24.0976562,50 C24.0341797,48.6884765 24,47.3496095 24,46 C24,44.6621095 24.0888672,43.326172 24.265625,42 L48,42 C48.5302735,42 49.0390625,41.7890625 49.4140625,41.4140625 L52,38.828125 L52,40 C52,42.2089845 53.7910155,44 56,44 L60,44 C62.1513672,43.9941405 63.913086,42.2861328 63.986328,40.1357422 C66.6035155,40.3564453 69.1396485,41.1513673 71.4140625,42.4658203 C72.0830078,42.9160155 72.8710938,43.158203 73.6777345,43.1601562 C74.8476562,43.1669922 75.9560547,42.638672 76.6884765,41.725586 C79.5830077,38.4882812 83.038086,35.7998047 86.8876952,33.790039 C87.0683595,33.696289 87.2333985,33.576172 87.3779297,33.4335938 C87.4121095,33.4023438 87.435547,33.3623047 87.4677735,33.328125 C87.5908202,33.1904297 87.6933595,33.0371095 87.774414,32.8720703 C87.8046875,32.8134765 87.8310547,32.751953 87.8535155,32.6904297 C87.9423827,32.475586 87.991211,32.2470703 88,32.015625 L88,31.984375 C87.9941405,31.7529297 87.9482422,31.5253905 87.8642577,31.3095703 C87.841797,31.248047 87.814453,31.1865235 87.7841797,31.1279297 C87.703125,30.9628905 87.5996095,30.8095703 87.477539,30.671875 C87.446289,30.6376953 87.421875,30.5976562 87.3876952,30.5664062 C87.243164,30.423828 87.078125,30.303711 86.8984375,30.209961 C83.048828,28.205078 79.59375,25.522461 76.6982422,22.290039 C75.4023437,20.6992188 73.102539,20.3691405 71.4121095,21.5322265 C69.142578,22.8623047 66.616211,23.6953125 64,23.975586 C63.986328,21.7763672 62.2001952,20 60,20 L56,20 C53.7910155,20 52,21.7910155 52,24 L52,25.171875 L49.4140625,22.5859375 C49.0390625,22.2109375 48.5302735,22 48,22 L33.7441405,22 C39.482422,15.9580078 49.3603515,10 66,10 C83.5302735,10 104,21 104,52 L104,60 C104,60.3183595 104.076172,60.6328125 104.22168,60.9160155 L112,76 L105.21582,77.7158203 Z M64,60 C64,56.6865235 66.6865235,54 70,54 C72.0009765,53.9013673 73.959961,54.5898438 75.459961,55.9179688 C77.5253905,57.716797 80.225586,58.6103515 82.9560547,58.4003905 C80.2919922,63.0527345 75.361328,65.9453125 70,66 C66.6865235,66 64,63.3134765 64,60 Z M73.6220703,24.868164 L73.5996095,24.7998048 C75.2382812,26.748047 77.102539,28.4941405 79.154297,30 L74,30 C72.8955078,30 72,30.8955078 72,32 C72,33.1044923 72.8955078,34 74,34 L79.1416015,34 C77.1064453,35.486328 75.2548828,37.209961 73.6259765,39.133789 C70.694336,37.3945313 67.399414,36.361328 64,36.1142578 L64,28 C67.4003905,27.6835938 70.6865235,26.6132813 73.6220703,24.868164 Z" id="Shape"></path>
            </g>
        </g>
        <g id="Group" transform="translate(758.000000, 512.000000)" fill="#FFFFFF" fill-rule="nonzero">
            <g id="Icon/Bleeps/Bleeper">
                <path d="M54.7500663,84.75 L54.7500663,119.25 L46.2750663,119.25 C46.1250663,119.25 46.0250663,119.15 46.0250663,119 L46.0250663,105.775 C46.0250663,100.025 43.0750663,94.725 38.1250663,91.625 C26.2750663,84.175 19.2250663,71.475 19.25,57.7 C19.2750663,47.15 23.5000663,37.15 31.1250663,29.6 C33.8250663,26.925 36.8500663,24.675 40.0750663,22.875 L40.0750663,39 C35.2000663,43.9 32.1750663,50.65 32.1750663,58.1 C32.2000663,71.45 41.9750663,82.6 54.7500663,84.75 Z" id="Path"></path>
                <path d="M59.2750663,30.975 C55.6750663,30.975 52.2500663,31.675 49.1250663,32.95 L49.1250663,9 C49.1250663,8.85 49.2250663,8.75 49.3750663,8.75 L69.1750663,8.75 C69.3250663,8.75 69.4250663,8.85 69.4250663,9 L69.4250663,32.95 C66.3000663,31.7 62.8750663,30.975 59.2750663,30.975 Z" id="Path"></path>
                <circle id="Oval" cx="59.2750663" cy="58.05" r="18.05"></circle>
                <path d="M108.800066,66.35 C109.250066,67 109.125066,67.875 108.500066,68.35 L101.300066,73.825 C100.175066,74.675 99.5250663,76 99.5250663,77.425 L99.5250663,96.35 C99.5250663,97.25 98.7500663,97.95 97.8000663,97.95 L86.1750663,97.95 C83.6750663,97.95 81.6500663,99.975 81.6500663,102.475 L81.6500663,119 C81.6500663,119.15 81.5500663,119.25 81.4000663,119.25 L63.7750663,119.25 L63.7750663,84.75 C76.5750663,82.6 86.3500663,71.45 86.3500663,58.05 C86.3500663,50.6 83.3250663,43.85 78.4500663,38.95 L78.4500663,21.9 C90.1000663,27.65 98.7500663,38.725 100.725066,51.95 C101.100066,54.45 102.075066,56.875 103.575066,58.975 L108.800066,66.35 Z" id="Path"></path>
            </g>
        </g>
    </g>
</svg>